<svg xmlns="http://www.w3.org/2000/svg" viewBox="0 0 67 98" fill="none">
  <rect width="67" height="98" fill="#27272a"/>
  <!-- film strip holes top -->
  <rect x="5"  y="6" width="7" height="7" rx="1.5" fill="#3f3f46"/>
  <rect x="18" y="6" width="7" height="7" rx="1.5" fill="#3f3f46"/>
  <rect x="31" y="6" width="7" height="7" rx="1.5" fill="#3f3f46"/>
  <rect x="44" y="6" width="7" height="7" rx="1.5" fill="#3f3f46"/>
  <rect x="57" y="6" width="7" height="7" rx="1.5" fill="#3f3f46"/>
  <!-- film strip holes bottom -->
  <rect x="5"  y="85" width="7" height="7" rx="1.5" fill="#3f3f46"/>
  <rect x="18" y="85" width="7" height="7" rx="1.5" fill="#3f3f46"/>
  <rect x="31" y="85" width="7" height="7" rx="1.5" fill="#3f3f46"/>
  <rect x="44" y="85" width="7" height="7" rx="1.5" fill="#3f3f46"/>
  <rect x="57" y="85" width="7" height="7" rx="1.5" fill="#3f3f46"/>
  <!-- center frame -->
  <rect x="5" y="20" width="57" height="58" rx="2" fill="#3f3f46"/>
  <!-- camera lens -->
  <circle cx="33" cy="49" r="16" fill="#27272a"/>
  <circle cx="33" cy="49" r="11" fill="#3f3f46"/>
  <circle cx="33" cy="49" r="5"  fill="#52525b"/>
  <circle cx="29" cy="45" r="2"  fill="#71717a" opacity="0.5"/>
</svg>
